<svg xmlns="http://www.w3.org/2000/svg" viewBox="0 0 100 100">
  <defs>
    <linearGradient id="g" x1="0%" y1="0%" x2="100%" y2="100%">
      <stop offset="0%" stop-color="#F97316"/>
      <stop offset="100%" stop-color="#EA580C"/>
    </linearGradient>
  </defs>
  <rect width="100" height="100" rx="20" fill="url(#g)"/>
  <!-- Excavator body -->
  <rect x="18" y="52" width="44" height="22" rx="4" fill="#1C1917"/>
  <!-- Cabin -->
  <rect x="44" y="38" width="22" height="16" rx="3" fill="#292524"/>
  <!-- Cabin window -->
  <rect x="48" y="42" width="14" height="8" rx="2" fill="#F97316" opacity="0.6"/>
  <!-- Exhaust pipe -->
  <rect x="38" y="32" width="4" height="20" rx="2" fill="#44403C"/>
  <!-- Wheel -->
  <circle cx="32" cy="76" r="8" fill="#292524" stroke="#1C1917" stroke-width="2"/>
  <circle cx="32" cy="76" r="3" fill="#F97316"/>
  <!-- Wheel 2 -->
  <circle cx="54" cy="76" r="8" fill="#292524" stroke="#1C1917" stroke-width="2"/>
  <circle cx="54" cy="76" r="3" fill="#F97316"/>
  <!-- Boom arm -->
  <rect x="16" y="48" width="4" height="28" rx="2" fill="#292524" transform="rotate(-15 18 62)"/>
  <!-- Arm segment -->
  <rect x="10" y="36" width="28" height="4" rx="2" fill="#44403C" transform="rotate(-30 24 38)"/>
  <!-- Bucket -->
  <path d="M6 32 L14 28 L18 34 L12 38 Z" fill="#F97316"/>
  <!-- Track -->
  <rect x="20" y="70" width="40" height="6" rx="3" fill="#44403C"/>
</svg>
